<!-- icon666.com - MILLIONS vector ICONS FREE --><svg viewBox="0 0 500 500" xmlns="http://www.w3.org/2000/svg"><g id="圖層_2" data-name="圖層 2"><path d="m259.7 235.69s.56 57 69.39 106.62c0 0 61.67 34.21 31.74 109.63l-168.83 4.79s-44.29-67-27.53-233.46z" fill="#67524b"></path><path d="m195.07 341c-10.46 14.69-27.72 48.85-7.76 96.26 0 0-30.63 3.49-29.3 17.31 0 0-1.78 26.63 78.44 4.42a36.14 36.14 0 0 0 25.55-26.58c5.71-24.49 10-65.14-14.65-90.93 0 0-10.36-9.23-23.47-12a28.35 28.35 0 0 0 -28.81 11.52z" fill="#67524b"></path><path d="m320.65 335.89c-60.39-48-60.95-100.2-60.95-100.2l-95.21-12.42c-7.92 78.67-2.2 135.11 6 172.78 29.08-1.52 110.26-10.27 150.16-60.16z" fill="#e83b0c"></path><path d="m298.43 361c-10.45 14.68-27.72 48.85-7.75 96.26 0 0-30.64 3.49-29.3 17.31 0 0-1.78 26.62 78.43 4.41a36.12 36.12 0 0 0 25.56-26.58c5.71-24.5 10-65.15-14.65-90.94 0 0-10.36-9.22-23.47-12a28.38 28.38 0 0 0 -28.82 11.54z" fill="#67524b"></path><path d="m298.43 361c-10.45 14.68-27.72 48.85-7.75 96.26 0 0-30.64 3.49-29.3 17.31 0 0-1.78 26.62 78.43 4.41a36.12 36.12 0 0 0 25.56-26.58c5.71-24.5 10-65.15-14.65-90.94 0 0-10.36-9.22-23.47-12a28.38 28.38 0 0 0 -28.82 11.54z" fill="#67524b"></path><path d="m299.55 461.46c-20-47.41-8-82.09 2.45-96.78 6.52-9.16 23.12-13.31 34.12-11 .67.15 1.32.31 2 .49a47 47 0 0 0 -10.82-3.8 28.38 28.38 0 0 0 -28.82 11.51c-10.45 14.69-27.71 48.86-7.75 96.26 0 0-30.64 3.49-29.3 17.32 0 0 2.59-6.25 15.36-10.22a79.38 79.38 0 0 1 22.76-3.78z" fill="#55433d"></path><path d="m107 368.29c.44 12.5.46 23.64.11 32-.29 6.69-2 22.3-2.56 29-1.51 18.7.41 30.74 3.2 40.76 1.92 6.91 8.14 14.34 14.63 17.38 15.2 7.14 30 5.71 37.26-1.09 6-5.64 9.26-13.6 9.83-21.83 1.88-26.95 1.84-58.56 1-88.25z" fill="#67524b"></path><path d="m247.25 301.67s16 91.63-.34 167c-1.75 8.06-6.09 15.48-12.86 20.19-8.18 5.7-23 5-37-4.25-6-3.95-11.08-12.19-12-19.3-1.33-10.32-1.5-22.51 2.67-40.8 1.49-6.53 5.45-21.73 6.69-28.32 6.12-32.46 12.81-71.12 4.74-107.14z" fill="#55433d"></path><path d="m203.52 366.5a215.42 215.42 0 0 1 -2.25 27.81c-1 6.47-4.15 21.4-5.33 27.82-3.32 18-3.19 29.95-2.13 40.08.73 7 4.78 15.09 9.55 19 11.17 9.08 23 9.77 29.51 4.18 5.39-4.63 8.85-11.91 10.25-19.83 5.78-32.93 8.28-69 9.28-99z" fill="#67524b"></path><path d="m357.68 424.72s59.19.84 45-90.86c0 0-12.51-69.19 29.17-74.19 0 0 16.68-3.34 16.68 7.5 0 0 .65 7.21-15.48 9.43a15.77 15.77 0 0 0 -12 8.94c-4.5 9.49-9.73 26.92-5 51.65 0 0 22.5 102.54-57.52 98.37z" fill="#67524b"></path><path d="m170.74 386.36c-1.26-59.09-6.11-113.64-6.11-113.64l-48.76-19.72c-4.24 16.35-13.93 49-11.37 76.31 1.8 19.1 2.7 38.1 2.84 53.45 13.22 2.51 40.02 6.49 63.4 3.6z" fill="#e83b0c"></path><path d="m189.58 281c13.27 32.08 16.18 75 12.58 106.49 12.05 1.06 30.55 1.61 49.42-1.91 2.45-46.67.95-84.39.95-84.39z" fill="#e83b0c"></path><path d="m235.07 70.72s-19.2 19-30.59 45.82c-12.71-3-68 3.17-80.13 9.17-16.92-24.13-40-38.65-40-38.65-8.25 14.59-16.82 45.7-18.7 69.44-1.48 18.83-.35 45.87.13 50.24 6 55.79 55.71 78.33 116.37 71.75s104.37-33.69 98.31-95c-.68-6.84-6.13-39.87-14.06-58.21-8.48-19.58-22.5-44.13-31.33-54.56z" fill="#67524b"></path><circle cx="152.96" cy="183.93" fill="#fff" r="13.95"></circle><circle cx="152.96" cy="183.93" fill="#231815" r="8"></circle><circle cx="232.44" cy="174.7" fill="#fff" r="13.95"></circle><g fill="#231815"><circle cx="232.44" cy="174.7" r="8"></circle><path d="m210.65 200.44c.38 6.64-7.28 10.42-11.4 10.66s-12.17-2.63-12.56-9.28 4.89-8.47 11.51-8.85 12.06.82 12.45 7.47z"></path><path d="m199.77 230.23a30.49 30.49 0 0 1 -15.64-4.75 1.64 1.64 0 0 1 1.88-2.69c.64.45 16 10.81 28.65-2.68a1.64 1.64 0 1 1 2.38 2.25c-5.65 6.01-11.82 7.87-17.27 7.87z"></path><path d="m201.05 229.07a1.64 1.64 0 0 1 -1.58-1.21c-1.22-4.57-2.39-24.9-2.44-25.76a1.64 1.64 0 1 1 3.27-.19c.33 5.79 1.4 21.58 2.34 25.1a1.64 1.64 0 0 1 -1.16 2 1.63 1.63 0 0 1 -.43.06z"></path><path d="m51.45 213.25a1.66 1.66 0 0 1 -1.25-.58 1.64 1.64 0 0 1 .18-2.3c.41-.35 10.22-8.56 33.05-11.22a1.64 1.64 0 0 1 .38 3.26c-21.73 2.53-31.2 10.37-31.3 10.45a1.64 1.64 0 0 1 -1.06.39z"></path><path d="m53.65 232.32a1.64 1.64 0 0 1 -1.31-2.62c.41-.55 10.38-13.49 36.49-18.85a1.64 1.64 0 1 1 .66 3.21c-24.79 5.09-34.44 17.49-34.49 17.61a1.62 1.62 0 0 1 -1.35.65z"></path><path d="m66.25 243a1.59 1.59 0 0 1 -.9-.28 1.63 1.63 0 0 1 -.46-2.26c.29-.45 7.46-11 28.68-19.89a1.64 1.64 0 0 1 1.26 3c-20.19 8.43-27.14 18.61-27.21 18.71a1.66 1.66 0 0 1 -1.37.72z"></path><path d="m303.66 181a1.52 1.52 0 0 1 -.68-.15c-.12-.05-11.39-5-33-1.48a1.64 1.64 0 0 1 -.53-3.23c22.69-3.69 34.37 1.51 34.86 1.74a1.64 1.64 0 0 1 -.69 3.12z"></path><path d="m305.74 200.1a1.66 1.66 0 0 1 -1-.33c-.19-.14-12.86-9.37-38-7.48a1.64 1.64 0 0 1 -.24-3.27c26.58-2 39.71 7.72 40.26 8.14a1.64 1.64 0 0 1 -1 2.94z"></path><path d="m295.78 213.94a1.59 1.59 0 0 1 -1.06-.4c-.14-.11-9.61-7.94-31.28-10.5a1.64 1.64 0 1 1 .38-3.26c22.83 2.7 32.62 10.93 33 11.28a1.64 1.64 0 0 1 -1.07 2.88z"></path></g><path d="m165.28 454.83c-.44 8-2.19 19.22-7.63 24.65-6.56 6.56-19 8.94-32.93 1.85-5.94-3-11.67-10.32-13.49-17.07-2.64-9.78-2.9-20-1.7-38.18.43-6.5 1.82-18.15 1.76-33.45 0-4.36-1.64-38.13-5.49-47.88 1 14.42 2.58 43.25 1.32 55.57-.69 6.66-2 22.3-2.56 29-1.51 18.7.41 30.74 3.2 40.76 1.92 6.91 8.14 14.34 14.63 17.38 15.2 7.14 30 5.71 37.26-1.09 6-5.64 9.26-13.6 9.83-21.83 2.36-34 1.7-75.31.21-110.91-.95 28.16-2.39 64.86-4.41 101.2z" fill="#55433d"></path><path d="m127.78 117.81 19.16-76.23a9.83 9.83 0 0 1 18.36-1.95l34.56 70.15a9.82 9.82 0 0 1 -4.66 13.27 96.13 96.13 0 0 1 -59.85 6.81 9.87 9.87 0 0 1 -7.57-12.05z" fill="#fff100"></path><path d="m137.89 114a7.41 7.41 0 0 0 -5.82-13.23l-3.28 13a7.41 7.41 0 0 0 9.1.23z" fill="#fabd00"></path><path d="m145.27 62.43a7.42 7.42 0 0 0 .08-14.52l-3.61 14.36a7.24 7.24 0 0 0 3.53.16z" fill="#fabd00"></path><path d="m165.6 63.07a7.39 7.39 0 0 0 12.89 3.33l-6-12.21a8.22 8.22 0 0 0 -1.09.11 7.43 7.43 0 0 0 -5.8 8.77z" fill="#fabd00"></path><circle cx="153.99" cy="23.72" fill="#e99100" r="16.22"></circle><circle cx="151.9" cy="84.23" fill="#fabd00" r="7.43"></circle><circle cx="181.33" cy="93.43" fill="#fabd00" r="7.43"></circle><circle cx="166.23" cy="115.09" fill="#fabd00" r="7.43"></circle></g></svg>